# AST/ASF file generated using VICON BodyLanguage
# -----------------------------------------------
:version 1.10
:name VICON
:units
  mass 1.0
  length 0.45
  angle deg
:documentation
   .ast/.asf automatically generated from VICON data using
   VICON BodyBuilder and BodyLanguage model FoxedUp or BRILLIANT.MOD
:root
   order TX TY TZ RX RY RZ
   axis XYZ
   position 0 0 0  
   orientation 0 0 0 
:bonedata
  begin
     id 1 
     name lhipjoint
     direction 0.612567 -0.751349 0.245431 
     length 2.42285 
     axis 0 0 0  XYZ
  end
  begin
     id 2 
     name lfemur
     direction 0.34202 -0.939693 0  
     length 7.11304  
     axis 0 0 20  XYZ
    dof rx ry rz
    limits (-160.0 20.0)
           (-70.0 70.0)
           (-60.0 70.0)
  end
  begin
     id 3 
     name ltibia
     direction 0.34202 -0.939693 0   
     length 7.84529   
     axis 0 0 20   XYZ
    dof rx
    limits (-10.0 170.0)
  end
  begin
     id 4 
     name lfoot
     direction 0.0779239 -0.214094 0.9737   
     length 1.97176   
     axis -90 7.62852e-016 20   XYZ
    dof rx rz
    limits (-45.0 90.0)
           (-70.0 20.0)
  end
  begin
     id 5 
     name ltoes
     direction 1.53565e-011 -4.21709e-011 1   
     length 0.993197   
     axis -90 7.62852e-016 20   XYZ
    dof rx
    limits (-90.0 20.0)
  end
  begin
     id 6 
     name rhipjoint
     direction -0.665722 -0.709315 0.231701   
     length 2.56642  
     axis 0 0 0  XYZ 
  end
  begin
     id 7 
     name rfemur
     direction -0.34202 -0.939693 0   
     length 7.32108   
     axis 0 0 -20   XYZ
    dof rx ry rz
    limits (-160.0 20.0)
           (-70.0 70.0)
           (-70.0 60.0)
  end
  begin
     id 8 
     name rtibia
     direction -0.34202 -0.939693 0   
     length 7.81254   
     axis 0 0 -20   XYZ
    dof rx
    limits (-10.0 170.0)
 end
 begin
     id 9 
     name rfoot
     direction -0.0832806 -0.228812 0.969902   
     length 2.08278  
     axis -90 -7.62852e-016 -20   XYZ
    dof rx rz
    limits (-45.0 90.0)
           (-20.0 70.0)
  end
  begin
     id 10 
     name rtoes
     direction -1.53589e-011 -4.22086e-011 1   
     length 1.04609   
     axis -90 -7.62852e-016 -20   XYZ
    dof rx
    limits (-90.0 20.0)
  end
  begin
     id 11 
     name lowerback
     direction -0.00506013 0.988403 -0.151766   
     length 2.01978   
     axis 0 0 0   XYZ
    dof rx ry rz
    limits (-20.0 45.0)
           (-30.0 30.0)
           (-30.0 30.0)
  end
  begin
     id 12 
     name upperback
     direction -0.00836389 0.99968 0.0238859   
     length 2.01276   
     axis 0 0 0   XYZ
    dof rx ry rz
    limits (-20.0 45.0)
           (-30.0 30.0)
           (-30.0 30.0)
  end
  begin
     id 13 
     name thorax
     direction -0.00684136 0.995386 0.0957043   
     length 2.07303   
     axis 0 0 0   XYZ
    dof rx ry rz
    limits (-20.0 45.0)
           (-30.0 30.0)
           (-30.0 30.0)
  end
  begin
     id 14 
     name lowerneck
     direction -0.0161045 0.999661 0.0204485   
     length 1.91243   
     axis 0 0 0   XYZ
    dof rx ry rz
    limits (-20.0 45.0)
           (-30.0 30.0)
           (-30.0 30.0)
  end
  begin
     id 15 
     name upperneck
     direction 0.0553583 0.990946 -0.122319   
     length 1.91574   
     axis 0 0 0   XYZ
    dof rx ry rz
    limits (-20.0 45.0)
           (-30.0 30.0)
           (-30.0 30.0)
  end
  begin
     id 16
     name head
     direction 0.0180273 0.998839 -0.0446756  
     length 1.92693  
     axis 0 0 0   XYZ
    dof rx ry rz
    limits (-20.0 45.0)
           (-30.0 30.0)
           (-30.0 30.0)
  end
  begin
     id 17 
     name lclavicle
     direction 0.945646 0.319323 -0.0615358  
     length 4.0076  
     axis 0 0 0   XYZ
    dof ry rz
    limits (-20.0 10.0)
           (0.0 20.0)
  end
  begin
     id 18 
     name lhumerus
     direction 1 -4.48967e-011 -2.79996e-027   
     length 5.64147   
     axis 180 -30 -90   XYZ
    dof rx ry rz
    limits (-60.0 90.0)
           (-90.0 90.0)
           (-90.0 90.0)
  end
  begin
     id 19
     name lradius
     direction 1 -4.48976e-011 -9.5122e-027   
     length 2.86444   
     axis 180 -30 -90   XYZ
    dof rx
    limits (-10.0 170.0)
  end
  begin
     id 20
     name lwrist
     direction 1 -4.48983e-011 -1.24047e-026   
     length 1.43222   
     axis 9.05591e-015 90 90   XYZ
    dof ry
    limits (-180.0 0.0)
 end
  begin
     id 21 
     name lhand
     direction 1 -4.4892e-011 -2.48094e-026   
     length 0.722123   
     axis 1.58305e-014 90 90   XYZ
    dof rx rz
    limits (-90.0 90.0)
           (-45.0 45.0)
  end
  begin
     id 22 
     name lfingers
     direction 1 -4.48895e-011 -4.96187e-026   
     length 0.582194   
     axis 3.1661e-014 90 90   XYZ
    dof rx
    limits (0.0 90.0)
  end
  begin
     id 23
     name lthumb
     direction 0.707107 -6.34961e-011 0.707107   
     length 0.835918   
     axis -90 45 2.85299e-015   XYZ
    dof rx rz
    limits (-45.0 45.0)
           (-45.0 45.0)
  end
  begin
     id 24 
     name rclavicle
     direction -0.932635 0.324218 -0.15835   
     length 3.65819  
     axis 0 0 0   XYZ 
    dof ry rz
    limits (-10.0 20.0)
           (-20.0 0.0)
  end
  begin
     id 25 
     name rhumerus
     direction -1 -4.48965e-011 -4.02296e-027  
     length 5.44729   
     axis 180 30 90   XYZ
    dof rx ry rz
    limits (-90.0 60.0)
           (-90.0 90.0)
           (-90.0 90.0)
  end
  begin
     id 26 
     name rradius
     direction -1 -4.48957e-011 -8.81087e-027   
     length 3.08821   
     axis 180 30 90   XYZ
    dof rx
    limits (-10.0 170.0)
  end
  begin
     id 27 
     name rwrist
     direction -1 -4.49015e-011 -1.24047e-026   
     length 1.5441   
     axis 9.05591e-015 -90 -90   XYZ
    dof ry
    limits (-180.0 0.0)
  end
  begin
     id 28
     name rhand
     direction -1 -4.4891e-011 -2.48094e-026   
     length 0.821049   
     axis 1.58305e-014 -90 -90   XYZ
    dof rx rz
    limits (-90.0 90.0)
           (-45.0 45.0)
  end
  begin
     id 29
     name rfingers
     direction -1 -4.48985e-011 -4.96187e-026   
     length 0.661951   
     axis 3.1661e-014 -90 -90   XYZ
    dof rx
    limits (0.0 90.0)
  end
  begin
     id 30
     name rthumb
     direction -0.707107 -6.34906e-011 0.707107   
     length 0.950433   
     axis -90 -45 -2.85299e-015   XYZ
    dof rx rz
    limits (-45.0 45.0)
           (-45.0 45.0)
  end
:hierarchy
  begin
    root lhipjoint rhipjoint lowerback
    lhipjoint lfemur
    lfemur ltibia
    ltibia lfoot
    lfoot ltoes
    rhipjoint rfemur
    rfemur rtibia
    rtibia rfoot
    rfoot rtoes
    lowerback upperback
    upperback thorax
    thorax lowerneck lclavicle rclavicle
    lowerneck upperneck
    upperneck head
    lclavicle lhumerus
    lhumerus lradius
    lradius lwrist
    lwrist lhand lthumb
    lhand lfingers
    rclavicle rhumerus
    rhumerus rradius
    rradius rwrist
    rwrist rhand rthumb
    rhand rfingers
  end

#!OML:ASF F:\VICON\USERDATA\INSTALL\rory3\rory3.ASF
:FULLY-SPECIFIED
:DEGREES
446
root 3.29098 17.7753 0.438609 -33.2565 88.5826 -33.7264
lowerback 2.11773 0.0977155 3.20846
upperback 0.238816 0.196804 -1.01941
thorax -0.928045 0.0859873 -2.85253
lowerneck -2.05411 -5.20223 -5.26523
upperneck 2.45934 -7.02912 8.96933
head 1.72137 -3.4112 3.69387
rclavicle -1.09332e-015 1.19271e-015
rhumerus -36.0283 -15.0867 -80.0224
rradius 25.8038
rwrist 15.4349
rhand -7.20986 8.66473
rfingers 7.12502
rthumb 18.669 -20.4594
lclavicle -1.09332e-015 1.19271e-015
lhumerus -34.782 1.04338 84.8429
lradius 24.2367
lwrist 28.653
lhand -11.6264 9.01029
lfingers 7.12502
lthumb 14.417 38.4896
rfemur 0.0515872 1.44862 19.8552
rtibia 14.1733
rfoot -15.8044 -1.25327
rtoes -6.77763
lfemur 0 0 0
ltibia 0
lfoot 0 0
ltoes 0
447
root 3.29171 17.7755 0.438334 -33.7999 88.6043 -34.29
lowerback 2.08363 0.0995849 3.21239
upperback 0.229632 0.198291 -1.02339
thorax -0.918214 0.086726 -2.85877
lowerneck -1.97137 -5.1991 -5.23494
upperneck 2.37038 -7.02238 8.95963
head 1.6748 -3.41084 3.68741
rclavicle -2.50966e-015 4.37326e-015
rhumerus -35.9474 -14.9767 -80.0745
rradius 25.8349
rwrist 15.3091
rhand -7.12111 8.52455
rfingers 7.12502
rthumb 18.7543 -20.5914
lclavicle -2.50966e-015 4.37326e-015
lhumerus -34.6955 1.08191 84.7948
lradius 24.1347
lwrist 28.5766
lhand -11.6631 8.96317
lfingers 7.12502
lthumb 14.3817 38.445
rfemur 0.0254168 1.39772 19.8449
rtibia 14.1931
rfoot -15.8201 -1.15354
rtoes -6.52263
lfemur 0 0 0
ltibia 0
lfoot 0 0
ltoes 0
448
root 3.29276 17.7754 0.438118 -32.8029 88.6358 -33.2798
lowerback 2.08017 0.1074 3.18236
upperback 0.229291 0.207801 -1.04094
thorax -0.915969 0.0916242 -2.86019
lowerneck -1.98453 -5.2035 -5.24333
upperneck 2.40325 -7.0299 8.9683
head 1.68938 -3.41371 3.69129
rclavicle -5.889e-015 -2.78299e-015
rhumerus -35.8885 -14.9658 -80.0846
rradius 25.8496
rwrist 15.2825
rhand -6.99026 8.49001
rfingers 7.12502
rthumb 18.8802 -20.6137
lclavicle -5.889e-015 -2.78299e-015
lhumerus -34.6015 1.07344 84.759
lradius 24.01
lwrist 28.4266
lhand -11.6695 8.81197
lfingers 7.12502
lthumb 14.3754 38.2942
rfemur 0.0474879 1.4004 19.8034
rtibia 14.1954
rfoot -15.8127 -1.19006
rtoes -6.81222
lfemur 0 0 0
ltibia 0
lfoot 0 0
ltoes 0
449
root 3.29392 17.7757 0.437896 -34.4204 88.6268 -34.9101
lowerback 2.04955 0.11435 3.21513
upperback 0.22549 0.21693 -1.0271
thorax -0.901971 0.096249 -2.86451
lowerneck -2.03555 -5.20724 -5.25614
upperneck 2.47525 -7.03749 8.96899
head 1.72347 -3.41538 3.69208
rclavicle 8.82107e-016 -6.36111e-015
rhumerus -35.8454 -14.7969 -80.1477
rradius 25.9277
rwrist 15.1007
rhand -6.86835 8.53559
rfingers 7.12502
rthumb 18.9974 -20.5567
lclavicle 8.82107e-016 -6.36111e-015
lhumerus -34.5386 1.03145 84.7536
lradius 23.9923
lwrist 28.446
lhand -11.6439 8.6862
lfingers 7.12502
lthumb 14.4001 38.1667
rfemur 0.0502699 1.38931 19.8479
rtibia 14.1872
rfoot -15.8036 -1.2277
rtoes -7.10285
lfemur 0 0 0
ltibia 0
lfoot 0 0
ltoes 0
450
root 3.2964 17.7779 0.437945 -33.713 88.6728 -34.2602
lowerback 1.94815 0.119469 3.1841
upperback 0.21875 0.219733 -1.04391
thorax -0.851878 0.0985169 -2.864
lowerneck -2.03517 -5.21825 -5.27226
upperneck 2.46897 -7.05225 8.99814
head 1.72473 -3.42245 3.70489
rclavicle -8.94531e-016 5.76476e-015
rhumerus -35.761 -14.75 -80.1758
rradius 25.8658
rwrist 15.0922
rhand -7.01547 8.72129
rfingers 7.12502
rthumb 18.8559 -20.3848
lclavicle -8.94531e-016 5.76476e-015
lhumerus -34.5065 0.783398 84.8391
lradius 24.0766
lwrist 28.7743
lhand -11.6826 8.74462
lfingers 7.12502
lthumb 14.3629 38.2278
rfemur -0.00942655 1.41658 19.8057
rtibia 14.2135
rfoot -15.8338 -1.24207
rtoes -6.93973
lfemur 0 0 0
ltibia 0
lfoot 0 0
ltoes 0
451
root 3.2976 17.7775 0.438909 -34.3051 88.6936 -34.862
lowerback 1.91641 0.112126 3.16988
upperback 0.224945 0.208622 -1.04093
thorax -0.828601 0.0935192 -2.85249
lowerneck -2.08743 -5.21743 -5.27654
upperneck 2.5131 -7.05187 8.98528
head 1.74822 -3.42073 3.69972
rclavicle 5.59082e-017 -7.15625e-015
rhumerus -35.6557 -14.6337 -80.2292
rradius 25.7935
rwrist 15.0776
rhand -7.15448 8.76763
rfingers 7.12502
rthumb 18.7222 -20.3514
lclavicle 5.59082e-017 -7.15625e-015
lhumerus -34.4802 0.649716 84.8762
lradius 24.1733
lwrist 28.9909
lhand -11.7356 8.8601
lfingers 7.12502
lthumb 14.3118 38.3469
rfemur -0.0185823 1.45665 19.8123
rtibia 14.2228
rfoot -15.8763 -1.24319
rtoes -6.44751
lfemur 0 0 0
ltibia 0
lfoot 0 0
ltoes 0
452
root 3.2986 17.7766 0.439123 -33.9171 88.7453 -34.4513
lowerback 1.9201 0.0991281 3.12882
upperback 0.236154 0.190454 -1.05003
thorax -0.820593 0.0848979 -2.83826
lowerneck -2.12253 -5.21488 -5.24033
upperneck 2.54338 -7.04868 8.92803
head 1.75971 -3.41856 3.67183
rclavicle -1.90088e-015 -1.0138e-014
rhumerus -35.6237 -14.2794 -80.3904
rradius 25.9188
rwrist 14.7945
rhand -7.16967 8.58225
rfingers 7.12502
rthumb 18.7076 -20.5382
lclavicle -1.90088e-015 -1.0138e-014
lhumerus -34.441 0.56785 84.8791
lradius 24.2516
lwrist 29.2199
lhand -11.7499 9.07725
lfingers 7.12502
lthumb 14.298 38.565
rfemur 0.00288383 1.45376 19.7767
rtibia 14.2505
rfoot -15.9277 -1.26468
rtoes -6.34444
lfemur 0 0 0
ltibia 0
lfoot 0 0
ltoes 0
453
root 3.30135 17.7763 0.438253 -35.6272 88.7967 -36.1626
lowerback 1.89071 0.0871795 3.14432
upperback 0.235274 0.173926 -1.04777
thorax -0.806177 0.0768113 -2.84413
lowerneck -2.12225 -5.22049 -5.27105
upperneck 2.5705 -7.05754 8.94451
head 1.77153 -3.42267 3.68303
rclavicle 1.98163e-015 6.55989e-015
rhumerus -35.6294 -13.9692 -80.5248
rradius 26.0741
rwrist 14.5502
rhand -7.1518 8.36676
rfingers 7.12502
rthumb 18.7248 -20.752
lclavicle 1.98163e-015 6.55989e-015
lhumerus -34.426 0.338582 84.964
lradius 24.3027
lwrist 29.5161
lhand -11.7285 9.16029
lfingers 7.12502
lthumb 14.3186 38.6466
rfemur 0.00640052 1.41976 19.7764
rtibia 14.2813
rfoot -15.976 -1.30742
rtoes -6.6491
lfemur 0 0 0
ltibia 0
lfoot 0 0
ltoes 0
454
root 3.30249 17.778 0.438357 -34.9946 88.8455 -35.5373
lowerback 1.86976 0.082283 3.08824
upperback 0.235655 0.165634 -1.04537
thorax -0.794811 0.0730479 -2.8098
lowerneck -2.09732 -5.21641 -5.30347
upperneck 2.53957 -7.05061 8.96218
head 1.75868 -3.42037 3.69645
rclavicle 3.16813e-016 -1.39149e-015
rhumerus -35.5964 -13.976 -80.4799
rradius 26.0804
rwrist 14.6038
rhand -7.07832 8.38562
rfingers 7.12502
rthumb 18.7955 -20.7263
lclavicle 3.16813e-016 -1.39149e-015
lhumerus -34.4291 0.152623 85.0455
lradius 24.3831
lwrist 29.7382
lhand -11.7813 9.19534
lfingers 7.12502
lthumb 14.2677 38.6852
rfemur -0.0192994 1.3578 19.7368
rtibia 14.3213
rfoot -16.0111 -1.30567
rtoes -7.18871
lfemur 0 0 0
ltibia 0
lfoot 0 0
ltoes 0
455
root 3.30379 17.7785 0.438396 -35.2438 88.8532 -35.7963
lowerback 1.8506 0.0799323 3.088
upperback 0.23474 0.161907 -1.04524
thorax -0.785273 0.0713297 -2.80938
lowerneck -2.08564 -5.21474 -5.319
upperneck 2.50518 -7.04685 8.98533
head 1.74685 -3.41902 3.70813
rclavicle 2.5842e-015 3.97569e-016
rhumerus -35.5831 -13.9495 -80.4746
rradius 26.1151
rwrist 14.6135
rhand -7.07146 8.52138
rfingers 7.12502
rthumb 18.8021 -20.5899
lclavicle 2.5842e-015 3.97569e-016
lhumerus -34.4215 -0.0347394 85.1047
lradius 24.4469
lwrist 29.8214
lhand -11.8907 9.22429
lfingers 7.12502
lthumb 14.1623 38.7216
rfemur -0.0257322 1.37516 19.7442
rtibia 14.3366
rfoot -16.0339 -1.37432
rtoes -7.22107
lfemur 0 0 0
ltibia 0
lfoot 0 0
ltoes 0
456
root 3.30411 17.7772 0.438199 -35.4946 88.8611 -36.0465
lowerback 1.85739 0.0843869 3.10225
upperback 0.226252 0.168311 -1.05615
thorax -0.797259 0.0741415 -2.82883
lowerneck -2.05902 -5.21533 -5.32641
upperneck 2.48029 -7.04744 9.0131
head 1.73563 -3.41981 3.72005
rclavicle 2.17421e-015 1.39149e-015
rhumerus -35.5854 -13.8267 -80.5284
rradius 26.2132
rwrist 14.4822
rhand -7.05862 8.36436
rfingers 7.12502
rthumb 18.8144 -20.7457
lclavicle 2.17421e-015 1.39149e-015
lhumerus -34.384 -0.116122 85.0961
lradius 24.4156
lwrist 29.728
lhand -11.8391 9.18119
lfingers 7.12502
lthumb 14.212 38.675
rfemur -0.0205532 1.4034 19.744
rtibia 14.3331
rfoot -16.0481 -1.33062
rtoes -6.50687
lfemur 0 0 0
ltibia 0
lfoot 0 0
ltoes 0
457
root 3.30434 17.7766 0.4374 -36.0703 88.8769 -36.6117
lowerback 1.8934 0.0831722 3.11837
upperback 0.209373 0.168144 -1.06609
thorax -0.834707 0.0730797 -2.84833
lowerneck -2.0332 -5.22436 -5.31011
upperneck 2.47715 -7.06032 9.00512
head 1.72981 -3.42679 3.7143
rclavicle -1.40392e-015 -3.37934e-015
rhumerus -35.6163 -13.3795 -80.7251
rradius 26.3694
rwrist 14.0404
rhand -7.06947 8.12839
rfingers 7.12502
rthumb 18.804 -20.9827
lclavicle -1.40392e-015 -3.37934e-015
lhumerus -34.3579 -0.0994234 85.0386
lradius 24.3659
lwrist 29.577
lhand -11.725 9.07136
lfingers 7.12502
lthumb 14.322 38.5574
rfemur -0.00243212 1.39934 19.738
rtibia 14.3116
rfoot -16.0235 -1.28705
rtoes -6.18036
lfemur 0 0 0
ltibia 0
lfoot 0 0
ltoes 0
